<svg width="37" height="37" viewBox="0 0 37 37" fill="none" xmlns="http://www.w3.org/2000/svg">
<path d="M25.2218 21.5833C25.3452 20.5658 25.4377 19.5483 25.4377 18.4999C25.4377 17.4516 25.3452 16.4341 25.2218 15.4166H30.4327C30.6793 16.4033 30.8335 17.4362 30.8335 18.4999C30.8335 19.5637 30.6793 20.5966 30.4327 21.5833M22.4931 30.1549C23.4181 28.4437 24.1272 26.5937 24.6206 24.6666H29.1685C27.6749 27.2385 25.3053 29.1867 22.4931 30.1549ZM22.1077 21.5833H14.8927C14.7385 20.5658 14.646 19.5483 14.646 18.4999C14.646 17.4516 14.7385 16.4187 14.8927 15.4166H22.1077C22.2464 16.4187 22.3543 17.4516 22.3543 18.4999C22.3543 19.5483 22.2464 20.5658 22.1077 21.5833ZM18.5002 30.7716C17.2206 28.9216 16.1877 26.8712 15.5556 24.6666H21.4447C20.8127 26.8712 19.7797 28.9216 18.5002 30.7716ZM12.3335 12.3333H7.83183C9.31007 9.75437 11.678 7.80304 14.4918 6.84492C13.5668 8.55617 12.8731 10.4062 12.3335 12.3333ZM7.83183 24.6666H12.3335C12.8731 26.5937 13.5668 28.4437 14.4918 30.1549C11.6839 29.1862 9.3193 27.2377 7.83183 24.6666ZM6.56766 21.5833C6.321 20.5966 6.16683 19.5637 6.16683 18.4999C6.16683 17.4362 6.321 16.4033 6.56766 15.4166H11.7785C11.6552 16.4341 11.5627 17.4516 11.5627 18.4999C11.5627 19.5483 11.6552 20.5658 11.7785 21.5833M18.5002 6.21284C19.7797 8.06284 20.8127 10.1287 21.4447 12.3333H15.5556C16.1877 10.1287 17.2206 8.06284 18.5002 6.21284ZM29.1685 12.3333H24.6206C24.1381 10.4238 23.4236 8.58068 22.4931 6.84492C25.3297 7.81617 27.6885 9.77409 29.1685 12.3333ZM18.5002 3.08325C9.97475 3.08325 3.0835 10.0208 3.0835 18.4999C3.0835 22.5887 4.70775 26.51 7.59893 29.4011C9.0305 30.8327 10.73 31.9683 12.6005 32.7431C14.4709 33.5178 16.4756 33.9166 18.5002 33.9166C22.5889 33.9166 26.5102 32.2923 29.4014 29.4011C32.2926 26.51 33.9168 22.5887 33.9168 18.4999C33.9168 16.4754 33.5181 14.4707 32.7433 12.6002C31.9685 10.7298 30.833 9.03026 29.4014 7.59869C27.9698 6.16712 26.2703 5.03154 24.3999 4.25678C22.5294 3.48202 20.5247 3.08325 18.5002 3.08325Z" fill="#AFE5FC"/>
</svg>
