<svg width="41" height="41" viewBox="0 0 41 41" fill="none" xmlns="http://www.w3.org/2000/svg">
<path d="M20.4998 37.5834C11.0647 37.5834 3.4165 29.9352 3.4165 20.5001C3.4165 11.065 11.0647 3.41675 20.4998 3.41675C29.935 3.41675 37.5832 11.065 37.5832 20.5001C37.5832 29.9352 29.935 37.5834 20.4998 37.5834ZM14.5207 23.9167V27.3334H18.7915V30.7501H22.2082V27.3334H23.9165C25.0492 27.3334 26.1355 26.8835 26.9364 26.0825C27.7374 25.2816 28.1873 24.1953 28.1873 23.0626C28.1873 21.9299 27.7374 20.8436 26.9364 20.0426C26.1355 19.2417 25.0492 18.7917 23.9165 18.7917H17.0832C16.8566 18.7917 16.6394 18.7018 16.4792 18.5416C16.319 18.3814 16.229 18.1641 16.229 17.9376C16.229 17.711 16.319 17.4938 16.4792 17.3336C16.6394 17.1734 16.8566 17.0834 17.0832 17.0834H26.479V13.6667H22.2082V10.2501H18.7915V13.6667H17.0832C15.9505 13.6667 14.8642 14.1167 14.0632 14.9176C13.2623 15.7186 12.8123 16.8049 12.8123 17.9376C12.8123 19.0703 13.2623 20.1566 14.0632 20.9575C14.8642 21.7585 15.9505 22.2084 17.0832 22.2084H23.9165C24.143 22.2084 24.3603 22.2984 24.5205 22.4586C24.6807 22.6188 24.7707 22.836 24.7707 23.0626C24.7707 23.2891 24.6807 23.5064 24.5205 23.6666C24.3603 23.8268 24.143 23.9167 23.9165 23.9167H14.5207Z" fill="#AFE5FC"/>
</svg>
