<svg width="136" height="130" viewBox="0 0 136 130" fill="none" xmlns="http://www.w3.org/2000/svg">
<g filter="url(#filter0_f_254_20)">
<path d="M67.0005 1.92705C67.2999 1.00574 68.6033 1.00574 68.9027 1.92705L84.0044 48.4053C84.1382 48.8173 84.5222 49.0963 84.9554 49.0963H133.826C134.794 49.0963 135.197 50.3359 134.413 50.9053L94.8766 79.6304C94.5261 79.8851 94.3794 80.3364 94.5133 80.7484L109.615 127.227C109.914 128.148 108.86 128.914 108.076 128.345L68.5394 99.6196C68.1889 99.3649 67.7143 99.3649 67.3638 99.6196L27.8271 128.345C27.0434 128.914 25.9889 128.148 26.2882 127.227L41.3899 80.7484C41.5238 80.3364 41.3771 79.8851 41.0266 79.6304L1.4899 50.9053C0.706185 50.3359 1.10896 49.0963 2.07768 49.0963H50.9478C51.381 49.0963 51.765 48.8173 51.8988 48.4053L67.0005 1.92705Z" fill="#1F5E77" fill-opacity="0.25"/>
</g>
<defs>
<filter id="filter0_f_254_20" x="0.0756836" y="0.236084" width="135.752" height="129.304" filterUnits="userSpaceOnUse" color-interpolation-filters="sRGB">
<feFlood flood-opacity="0" result="BackgroundImageFix"/>
<feBlend mode="normal" in="SourceGraphic" in2="BackgroundImageFix" result="shape"/>
<feGaussianBlur stdDeviation="0.5" result="effect1_foregroundBlur_254_20"/>
</filter>
</defs>
</svg>
