<svg width="35" height="35" viewBox="0 0 35 35" fill="none" xmlns="http://www.w3.org/2000/svg">
<g clip-path="url(#clip0_139_67)">
<path d="M33.0094 27.9781C33.2873 27.7617 33.5089 27.4813 33.6552 27.1608C33.8016 26.8404 33.8684 26.4893 33.8499 26.1375C33.8314 25.7857 33.7282 25.4435 33.5492 25.1402C33.3701 24.8368 33.1203 24.5812 32.8213 24.395L32.8125 11.6594L30.625 13.125V24.3906C30.3293 24.5767 30.0825 24.8308 29.905 25.1317C29.7276 25.4326 29.6247 25.7716 29.605 26.1204C29.5853 26.4692 29.6494 26.8176 29.7918 27.1366C29.9342 27.4556 30.1509 27.7359 30.4237 27.9541L29.5969 29.0522C28.8615 29.9878 28.4541 31.1392 28.4375 32.3291V35.0022H30.2203C30.6486 35.0021 31.0646 34.8593 31.4026 34.5962C31.7406 34.3331 31.9811 33.9649 32.0863 33.5497L32.8103 30.6272V35.0022H34.9978V32.3553C34.9811 31.1593 34.5705 30.0022 33.8297 29.0631L33.0094 27.9781ZM17.5 0L0 8.75L17.5 19.6875L35 8.75L17.5 0Z" fill="#AFE5FC"/>
<path d="M17.5 21.8747L6.5625 14.5903V18.331C6.5625 20.3216 12.9938 26.2497 17.5 26.2497C22.0062 26.2497 28.4375 20.3216 28.4375 18.331V14.5903L17.5 21.8747Z" fill="#AFE5FC"/>
</g>
<defs>
<clipPath id="clip0_139_67">
<rect width="35" height="35" fill="white"/>
</clipPath>
</defs>
</svg>
