<svg width="31" height="31" viewBox="0 0 31 31" fill="none" xmlns="http://www.w3.org/2000/svg">
<g clip-path="url(#clip0_447_1699)">
<path fill-rule="evenodd" clip-rule="evenodd" d="M23.746 29.4228C24.1619 29.7173 24.698 29.7909 25.1759 29.6101C25.6538 29.428 26.0052 29.0198 26.1111 28.5251C27.2335 23.2499 29.9564 9.89799 30.9781 5.09945C31.0556 4.73778 30.9264 4.36191 30.6422 4.12036C30.3581 3.87882 29.9641 3.80907 29.6128 3.93953C24.1968 5.9442 7.51753 12.2023 0.700109 14.7249C0.267401 14.8851 -0.0141827 15.301 2.56131e-05 15.757C0.0155256 16.2142 0.322942 16.6108 0.765984 16.7438C3.82336 17.6583 7.83657 18.9306 7.83657 18.9306C7.83657 18.9306 9.71207 24.5946 10.6899 27.475C10.8126 27.8367 11.0954 28.1208 11.4687 28.219C11.8407 28.3159 12.2386 28.2138 12.5163 27.9516C14.0869 26.4688 16.5153 24.1761 16.5153 24.1761C16.5153 24.1761 21.1291 27.5589 23.746 29.4228V29.4228ZM9.52478 18.215L11.6935 25.3683L12.1753 20.8384C12.1753 20.8384 20.5543 13.2809 25.3309 8.97316C25.4704 8.84657 25.4898 8.63474 25.3735 8.4862C25.2586 8.33766 25.0467 8.30278 24.8879 8.40353C19.3518 11.9388 9.52478 18.215 9.52478 18.215Z" fill="#AFE5FC"/>
</g>
<defs>
<clipPath id="clip0_447_1699">
<rect width="31" height="31" fill="white"/>
</clipPath>
</defs>
</svg>
