<svg width="35" height="35" viewBox="0 0 35 35" fill="none" xmlns="http://www.w3.org/2000/svg">
<path d="M28.1769 8.11152C27.9555 7.99706 27.7399 7.87157 27.5309 7.73555C26.9234 7.33391 26.3664 6.86065 25.8719 6.32598C24.6345 4.91025 24.1724 3.47402 24.0022 2.46846H24.0091C23.8669 1.63379 23.9257 1.09375 23.9345 1.09375H18.299V22.8854C18.299 23.1779 18.299 23.4671 18.2867 23.7528C18.2867 23.7884 18.2833 23.8212 18.2812 23.8595C18.2812 23.8752 18.2812 23.8916 18.2778 23.908C18.2778 23.9121 18.2778 23.9162 18.2778 23.9203C18.2184 24.7022 17.9678 25.4575 17.5479 26.1198C17.1281 26.782 16.552 27.331 15.8702 27.7184C15.1596 28.1226 14.356 28.3347 13.5385 28.3336C10.9128 28.3336 8.78474 26.1926 8.78474 23.5484C8.78474 20.9043 10.9128 18.7633 13.5385 18.7633C14.0355 18.7628 14.5295 18.841 15.002 18.995L15.0089 13.2569C13.5743 13.0716 12.1168 13.1856 10.7285 13.5918C9.34011 13.9979 8.051 14.6874 6.94246 15.6167C5.97112 16.4607 5.15451 17.4677 4.52937 18.5924C4.29148 19.0025 3.39392 20.6507 3.28523 23.3256C3.21687 24.8438 3.67283 26.4168 3.89021 27.0669V27.0806C4.02693 27.4634 4.55672 28.7697 5.4201 29.871C6.11629 30.7544 6.93883 31.5304 7.86121 32.174V32.1604L7.87488 32.174C10.6031 34.0279 13.628 33.9062 13.628 33.9062C14.1516 33.8851 15.9057 33.9063 17.8977 32.9622C20.1071 31.9156 21.3649 30.3563 21.3649 30.3563C22.1685 29.4247 22.8074 28.3629 23.2544 27.2166C23.7643 25.8761 23.9345 24.2683 23.9345 23.6257V12.0647C24.0029 12.1058 24.9135 12.708 24.9135 12.708C24.9135 12.708 26.2253 13.5488 28.2719 14.0964C29.7403 14.486 31.7186 14.5681 31.7186 14.5681V8.97354C31.0255 9.04873 29.6179 8.82998 28.1769 8.11152Z" fill="#AFE5FC"/>
</svg>
