<?xml version="1.0" standalone="no"?>
<!DOCTYPE svg PUBLIC "-//W3C//DTD SVG 20010904//EN"
 "http://www.w3.org/TR/2001/REC-SVG-20010904/DTD/svg10.dtd">
<svg version="1.0" xmlns="http://www.w3.org/2000/svg"
 width="260.000000pt" height="260.000000pt" viewBox="0 0 260.000000 260.000000"
 preserveAspectRatio="xMidYMid meet">
<metadata>
Created by potrace 1.14, written by Peter Selinger 2001-2017
</metadata>
<g transform="translate(0.000000,260.000000) scale(0.100000,-0.100000)"
fill="#000000" stroke="none">
<path d="M270 2589 c-103 -28 -186 -99 -234 -199 l-31 -65 0 -1025 0 -1025 31
-65 c40 -83 92 -135 174 -174 l65 -31 995 -3 c643 -2 1012 1 1042 8 115 24
199 91 252 200 l31 65 3 999 c2 879 1 1006 -13 1060 -23 90 -75 160 -158 212
-85 55 -70 54 -1137 53 -586 0 -999 -5 -1020 -10z"/>
</g>
</svg>
