<?xml version="1.0" encoding="utf-8"?><svg xmlns="http://www.w3.org/2000/svg" xmlns:xlink="http://www.w3.org/1999/xlink"><symbol fill="none" viewBox="0 0 26 26" id="cross" xmlns="http://www.w3.org/2000/svg"><path d="M13 0v26M0 13h26" stroke="#F5F5F5" stroke-width="1.529"/></symbol><symbol fill="none" viewBox="0 0 22 15" id="eye" xmlns="http://www.w3.org/2000/svg"><path d="M11 0C6 0 1.73 3.11 0 7.5 1.73 11.89 6 15 11 15s9.27-3.11 11-7.5C20.27 3.11 16 0 11 0zm0 12.5c-2.76 0-5-2.24-5-5s2.24-5 5-5 5 2.24 5 5-2.24 5-5 5zm0-8c-1.66 0-3 1.34-3 3s1.34 3 3 3 3-1.34 3-3-1.34-3-3-3z" fill="#fff"/></symbol><symbol fill="none" viewBox="0 0 37 37" id="global" xmlns="http://www.w3.org/2000/svg"><path d="M25.222 21.583c.123-1.017.216-2.035.216-3.083s-.093-2.066-.216-3.083h5.21c.247.986.402 2.02.402 3.083a12.71 12.71 0 01-.401 3.083m-7.94 8.572a24.127 24.127 0 002.128-5.488h4.548a12.38 12.38 0 01-6.676 5.488zm-.385-8.572h-7.215a20.451 20.451 0 01-.247-3.083c0-1.048.092-2.081.247-3.083h7.215c.138 1.002.246 2.035.246 3.083s-.108 2.066-.246 3.083zM18.5 30.772c-1.28-1.85-2.312-3.9-2.944-6.105h5.889c-.632 2.204-1.665 4.255-2.945 6.105zm-6.166-18.439H7.832a12.215 12.215 0 016.66-5.488c-.925 1.711-1.619 3.561-2.159 5.488zM7.832 24.667h4.502c.54 1.927 1.233 3.777 2.158 5.488a12.346 12.346 0 01-6.66-5.488zm-1.264-3.084c-.247-.986-.401-2.02-.401-3.083 0-1.064.154-2.097.4-3.083h5.211c-.123 1.017-.215 2.035-.215 3.083s.092 2.066.215 3.083M18.5 6.213c1.28 1.85 2.313 3.916 2.945 6.12h-5.89c.633-2.204 1.666-4.27 2.945-6.12zm10.669 6.12H24.62a24.126 24.126 0 00-2.128-5.488 12.313 12.313 0 016.676 5.488zM18.5 3.083c-8.525 0-15.416 6.938-15.416 15.417A15.416 15.416 0 1018.5 3.083z" fill="#AFE5FC"/></symbol><symbol fill="none" viewBox="0 0 41 41" id="money" xmlns="http://www.w3.org/2000/svg"><path d="M20.5 37.583c-9.435 0-17.084-7.648-17.084-17.083 0-9.435 7.649-17.083 17.084-17.083 9.435 0 17.083 7.648 17.083 17.083 0 9.435-7.648 17.083-17.083 17.083zm-5.98-13.666v3.416h4.271v3.417h3.417v-3.417h1.709a4.27 4.27 0 100-8.541h-6.834a.854.854 0 110-1.709h9.396v-3.416h-4.27V10.25H18.79v3.417h-1.708a4.271 4.271 0 000 8.541h6.834a.854.854 0 010 1.709H14.52z" fill="#AFE5FC"/></symbol><symbol fill="none" viewBox="0 0 67 33" id="quotes" xmlns="http://www.w3.org/2000/svg"><g filter="url(#efilter0_b_47_133)"><path d="M6.641.827C3.637 4.876.633 11.537.633 16.63v16.326h30.301V13.104h-13.06c.522-3.526 2.48-8.228 4.701-12.277H6.641zm35.395 0c-3.004 4.049-6.008 10.71-6.008 15.804v16.326h30.301V13.104H53.27C53.79 9.578 55.75 4.876 57.97.827H42.036z" fill="#27B6F3" fill-opacity=".54"/></g><defs><filter id="efilter0_b_47_133" x="-19.367" y="-19.173" width="105.696" height="72.129" filterUnits="userSpaceOnUse" color-interpolation-filters="sRGB"><feFlood flood-opacity="0" result="BackgroundImageFix"/><feGaussianBlur in="BackgroundImageFix" stdDeviation="10"/><feComposite in2="SourceAlpha" operator="in" result="effect1_backgroundBlur_47_133"/><feBlend in="SourceGraphic" in2="effect1_backgroundBlur_47_133" result="shape"/></filter></defs></symbol><symbol fill="none" viewBox="0 0 21 16" id="slider-arrow" xmlns="http://www.w3.org/2000/svg"><path d="M20.707 8.707a1 1 0 000-1.414L14.343.929a1 1 0 10-1.414 1.414L18.586 8l-5.657 5.657a1 1 0 001.414 1.414l6.364-6.364zM0 9h20V7H0v2z" fill="#B1CBD6"/></symbol><symbol fill="none" viewBox="0 0 136 130" id="star" xmlns="http://www.w3.org/2000/svg"><g filter="url(#gfilter0_f_254_20)"><path d="M67 1.927c.3-.921 1.603-.921 1.903 0l15.101 46.478a1 1 0 00.951.691h48.871c.968 0 1.371 1.24.587 1.81L94.877 79.63a1 1 0 00-.364 1.118l15.102 46.479c.299.921-.755 1.687-1.539 1.118L68.539 99.62a1 1 0 00-1.175 0l-39.537 28.725c-.784.569-1.838-.197-1.539-1.118L41.39 80.748a1 1 0 00-.363-1.118L1.49 50.905c-.784-.57-.381-1.809.588-1.809h48.87a1 1 0 00.95-.69L67 1.926z" fill="#1F5E77" fill-opacity=".25"/></g><defs><filter id="gfilter0_f_254_20" x=".076" y=".236" width="135.752" height="129.304" filterUnits="userSpaceOnUse" color-interpolation-filters="sRGB"><feFlood flood-opacity="0" result="BackgroundImageFix"/><feBlend in="SourceGraphic" in2="BackgroundImageFix" result="shape"/><feGaussianBlur stdDeviation=".5" result="effect1_foregroundBlur_254_20"/></filter></defs></symbol><symbol fill="none" viewBox="0 0 35 35" id="students" xmlns="http://www.w3.org/2000/svg"><g clip-path="url(#hclip0_139_67)" fill="#AFE5FC"><path d="M33.01 27.978a2.187 2.187 0 00-.189-3.583l-.008-12.736-2.188 1.466v11.266a2.19 2.19 0 00-.201 3.563l-.827 1.098a5.425 5.425 0 00-1.16 3.277v2.673h1.783a1.925 1.925 0 001.866-1.452l.724-2.923v4.375h2.188v-2.647a5.438 5.438 0 00-1.168-3.292l-.82-1.085zM17.5 0L0 8.75l17.5 10.938L35 8.75 17.5 0z"/><path d="M17.5 21.875L6.562 14.59v3.741c0 1.99 6.432 7.919 10.938 7.919s10.938-5.928 10.938-7.919v-3.74L17.5 21.874z"/></g><defs><clipPath id="hclip0_139_67"><path fill="#fff" d="M0 0h35v35H0z"/></clipPath></defs></symbol><symbol fill="none" viewBox="0 0 31 31" id="telegram" xmlns="http://www.w3.org/2000/svg"><g clip-path="url(#iclip0_447_1699)"><path fill-rule="evenodd" clip-rule="evenodd" d="M23.746 29.423c.416.294.952.368 1.43.187.478-.182.83-.59.935-1.085C27.233 23.25 29.956 9.898 30.978 5.1a1.009 1.009 0 00-.336-.979 1.034 1.034 0 00-1.03-.18C24.198 5.944 7.519 12.202.7 14.725c-.433.16-.714.576-.7 1.032.016.457.323.854.766.987 3.057.914 7.07 2.187 7.07 2.187s1.876 5.664 2.854 8.544c.123.362.405.646.779.744a1.12 1.12 0 001.047-.267l4-3.776s4.613 3.383 7.23 5.247zM9.525 18.215l2.168 7.153.482-4.53L25.331 8.973a.358.358 0 00.043-.487.367.367 0 00-.486-.082L9.525 18.215z" fill="#AFE5FC"/></g><defs><clipPath id="iclip0_447_1699"><path fill="#fff" d="M0 0h31v31H0z"/></clipPath></defs></symbol><symbol fill="none" viewBox="0 0 35 35" id="tiktok" xmlns="http://www.w3.org/2000/svg"><path d="M28.177 8.112a7.492 7.492 0 01-.646-.376 9.083 9.083 0 01-1.66-1.41c-1.236-1.416-1.699-2.852-1.869-3.858h.007c-.142-.834-.083-1.374-.075-1.374H18.3v21.791c0 .293 0 .582-.012.868 0 .035-.004.068-.006.107 0 .015 0 .032-.003.048v.012a4.784 4.784 0 01-2.408 3.798 4.703 4.703 0 01-2.331.616c-2.626 0-4.754-2.141-4.754-4.786 0-2.644 2.128-4.785 4.754-4.785.497 0 .99.078 1.463.232l.007-5.738a10.468 10.468 0 00-8.067 2.36 11.06 11.06 0 00-2.413 2.975c-.238.41-1.135 2.059-1.244 4.734-.068 1.518.388 3.09.605 3.74v.015c.137.382.667 1.689 1.53 2.79a11.45 11.45 0 002.441 2.303v-.014l.014.014c2.728 1.854 5.753 1.732 5.753 1.732.524-.02 2.278 0 4.27-.944 2.21-1.046 3.467-2.606 3.467-2.606a10.831 10.831 0 001.89-3.14c.51-1.34.68-2.948.68-3.59V12.065c.068.04.979.643.979.643s1.311.84 3.358 1.388c1.468.39 3.447.472 3.447.472V8.974c-.694.075-2.101-.144-3.542-.862z" fill="#AFE5FC"/></symbol><symbol fill="none" viewBox="0 0 34 34" id="wallet" xmlns="http://www.w3.org/2000/svg"><path d="M6.342 6.906h21.25c.248 0 .496.016.742.047a4.382 4.382 0 00-5.147-3.69L5.711 6.248h-.02a4.383 4.383 0 00-2.727 1.736 5.815 5.815 0 013.378-1.077zM27.592 8.5H6.342a4.255 4.255 0 00-4.25 4.25V25.5a4.254 4.254 0 004.25 4.25h21.25a4.254 4.254 0 004.25-4.25V12.75a4.254 4.254 0 00-4.25-4.25zm-3.154 12.75a2.125 2.125 0 110-4.25 2.125 2.125 0 010 4.25z" fill="#AFE5FC"/><path d="M2.125 17.232v-6.607c0-1.439.797-3.852 3.563-4.374 2.347-.44 4.671-.44 4.671-.44s1.528 1.062.266 1.062-1.229 1.627 0 1.627 0 1.56 0 1.56l-4.947 5.612-3.553 1.56z" fill="#AFE5FC"/></symbol></svg>